<?xml version="1.0" encoding="UTF-8"?>
<svg xmlns="http://www.w3.org/2000/svg" xmlns:xlink="http://www.w3.org/1999/xlink" width="29px" height="24px" viewBox="0 0 29 24" version="1.1">
<g id="surface1">
<path style=" stroke:none;fill-rule:nonzero;fill:rgb(100%,100%,100%);fill-opacity:1;" d="M 4.992188 16.015625 C 7.746094 20.304688 14.179688 21.933594 19.363281 19.65625 C 24.542969 17.378906 26.515625 12.054688 23.761719 7.765625 C 21.007812 3.476562 14.574219 1.847656 9.394531 4.125 C 4.210938 6.402344 2.242188 11.726562 4.992188 16.015625 Z M 4.992188 16.015625 "/>
<path style="fill:none;stroke-width:1;stroke-linecap:butt;stroke-linejoin:miter;stroke:rgb(24.313725%,24.313725%,24.313725%);stroke-opacity:1;stroke-miterlimit:4;" d="M 23.68435 12.092643 C 23.687546 5.689175 18.495814 0.498507 12.092862 0.497892 C 5.689911 0.497277 0.499943 5.690849 0.503193 12.091659 C 0.499996 18.495127 5.691728 23.685795 12.09468 23.68641 C 18.493706 23.68494 23.6876 18.493453 23.68435 12.092643 Z M 23.68435 12.092643 " transform="matrix(-0.77597,0.341091,-0.412152,-0.642182,28.745152,15.530909)"/>
<path style="fill:none;stroke-width:1;stroke-linecap:round;stroke-linejoin:miter;stroke:rgb(24.313725%,24.313725%,24.313725%);stroke-opacity:1;stroke-miterlimit:4;" d="M -0.00277512 22.662097 L -0.00143114 -0.00162279 " transform="matrix(-0.77597,0.341091,-0.412152,-0.642182,19.009939,19.112727)"/>
<path style="fill:none;stroke-width:1;stroke-linecap:round;stroke-linejoin:miter;stroke:rgb(24.313725%,24.313725%,24.313725%);stroke-opacity:1;stroke-miterlimit:4;" d="M 6.285563 22.672622 C 6.285563 22.672622 -0.00152406 21.145943 -0.000654569 11.334882 C 0.000858942 1.645819 6.285501 0.00207198 6.285501 0.00207198 " transform="matrix(-0.77597,0.341091,-0.412152,-0.642182,24.003212,17.037091)"/>
<path style="fill:none;stroke-width:1;stroke-linecap:round;stroke-linejoin:miter;stroke:rgb(24.313725%,24.313725%,24.313725%);stroke-opacity:1;stroke-miterlimit:4;" d="M 0.00105458 22.671453 C 0.00105458 22.671453 6.505572 21.144491 6.506441 11.333431 C 6.507955 1.644368 0.000992144 0.000902997 0.000992144 0.000902997 " transform="matrix(-0.77597,0.341091,-0.412152,-0.642182,19.071455,19.207273)"/>
<path style="fill:none;stroke-width:1;stroke-linecap:round;stroke-linejoin:miter;stroke:rgb(24.313725%,24.313725%,24.313725%);stroke-opacity:1;stroke-miterlimit:4;" d="M 0.00258866 3.391889 C 0.00258866 3.391889 4.920456 0.0185301 9.878743 0.00000183159 C 14.840956 -0.016441 19.843588 3.321947 19.843588 3.321947 " transform="matrix(-0.77597,0.341091,-0.412152,-0.642182,21.165606,7.126545)"/>
<path style="fill:none;stroke-width:1;stroke-linecap:round;stroke-linejoin:miter;stroke:rgb(24.313725%,24.313725%,24.313725%);stroke-opacity:1;stroke-miterlimit:4;" d="M 0.0005426 4.149248 C 0.0005426 4.149248 5.725661 0.128003 11.486801 0.000620298 C 17.254386 -0.129421 23.059399 3.64123 23.059399 3.64123 " transform="matrix(-0.77597,0.341091,-0.412152,-0.642182,24.702727,10.195636)"/>
<path style="fill:none;stroke-width:1;stroke-linecap:round;stroke-linejoin:miter;stroke:rgb(24.313725%,24.313725%,24.313725%);stroke-opacity:1;stroke-miterlimit:4;" d="M -0.000973569 3.830138 C -0.000973569 3.830138 5.165253 -0.00133612 10.379515 0.000522372 C 15.600223 -0.000278015 20.876818 3.836425 20.876818 3.836425 " transform="matrix(-0.77597,0.341091,-0.412152,-0.642182,26.027061,13.928727)"/>
<path style="fill:none;stroke-width:1;stroke-linecap:round;stroke-linejoin:miter;stroke:rgb(24.313725%,24.313725%,24.313725%);stroke-opacity:1;stroke-miterlimit:4;" d="M 0.000611312 3.869688 C 1.491512 2.171126 3.417697 0.913224 5.576706 0.228175 C 8.706885 -0.530259 12.529954 0.838103 12.529954 0.838103 " transform="matrix(-0.852684,0.175943,-0.212598,-0.70567,16.194303,6.324364)"/>
</g>
</svg>
