<svg xmlns="http://www.w3.org/2000/svg" width="25.395" height="26.491" viewBox="0 0 25.395 26.491">
  <g id="global-icon" transform="translate(-4 -2.64)">
    <g id="Ellisse_95" data-name="Ellisse 95" transform="translate(27.424 27.387) rotate(180)" fill="#fff" stroke="#3e3e3e" stroke-width="1">
      <ellipse cx="11.581" cy="11.581" rx="11.581" ry="11.581" stroke="none"/>
      <ellipse cx="11.581" cy="11.581" rx="11.081" ry="11.081" fill="none"/>
    </g>
    <line id="Linea_484" data-name="Linea 484" y1="21.701" transform="matrix(-0.883, 0.469, -0.469, -0.883, 20.896, 25.311)" fill="none" stroke="#3e3e3e" stroke-linecap="round" stroke-width="1"/>
    <path id="Tracciato_7284" data-name="Tracciato 7284" d="M6.018,21.711S0,20.249,0,10.855C0,1.574,6.018,0,6.018,0" transform="matrix(-0.883, 0.469, -0.469, -0.883, 26.338, 22.578)" fill="none" stroke="#3e3e3e" stroke-linecap="round" stroke-width="1"/>
    <path id="Tracciato_7285" data-name="Tracciato 7285" d="M0,21.711s6.231-1.462,6.231-10.855C6.231,1.574,0,0,0,0" transform="matrix(-0.883, 0.469, -0.469, -0.883, 20.963, 25.435)" fill="none" stroke="#3e3e3e" stroke-linecap="round" stroke-width="1"/>
    <path id="Tracciato_7289" data-name="Tracciato 7289" d="M0,3.249S4.711.017,9.463,0s9.543,3.18,9.543,3.18" transform="matrix(-0.883, 0.469, -0.469, -0.883, 23.245, 9.528)" fill="none" stroke="#3e3e3e" stroke-linecap="round" stroke-width="1"/>
    <path id="Tracciato_7290" data-name="Tracciato 7290" d="M0,3.974S5.481.125,11,0,22.084,3.488,22.084,3.488" transform="matrix(-0.883, 0.469, -0.469, -0.883, 27.1, 13.569)" fill="none" stroke="#3e3e3e" stroke-linecap="round" stroke-width="1"/>
    <path id="Tracciato_7291" data-name="Tracciato 7291" d="M0,3.668S4.944,0,9.942,0s10.05,3.675,10.05,3.675" transform="matrix(-0.883, 0.469, -0.469, -0.883, 28.543, 18.485)" fill="none" stroke="#3e3e3e" stroke-linecap="round" stroke-width="1"/>
    <path id="Tracciato_7288" data-name="Tracciato 7288" d="M0,3.708A11.833,11.833,0,0,1,5.338.22,13.733,13.733,0,0,1,12,.8" transform="translate(17.828 8.472) rotate(166)" fill="none" stroke="#3e3e3e" stroke-linecap="round" stroke-width="1"/>
  </g>
</svg>
