<svg xmlns="http://www.w3.org/2000/svg" width="29.088" height="24.096" viewBox="0 0 29.088 24.096">
  <g id="icona-archeo" transform="translate(0.505 0.503)">
    <g id="Livello_1" data-name="Livello 1" transform="translate(0 0)">
      <rect id="Rettangolo_493" data-name="Rettangolo 493" width="18.376" height="2.333" rx="1.166" transform="translate(4.861 19.109)" fill="none" stroke="#3e3e3e" stroke-linecap="round" stroke-miterlimit="10" stroke-width="1"/>
      <path id="Tracciato_7267" data-name="Tracciato 7267" d="M29.4,50.7H5.8c-.273,0-.494.117-.494.264v1.123c0,.147.221.264.494.264H29.4c.273,0,.494-.117.494-.264V50.965C29.891,50.83,29.67,50.7,29.4,50.7Z" transform="translate(-3.55 -29.258)" fill="none" stroke="#3e3e3e" stroke-linecap="round" stroke-miterlimit="10" stroke-width="1"/>
      <line id="Linea_474" data-name="Linea 474" x2="20.089" transform="translate(4.006 2.436)" fill="none" stroke="#3e3e3e" stroke-linecap="round" stroke-miterlimit="10" stroke-width="1"/>
      <rect id="Rettangolo_494" data-name="Rettangolo 494" width="18.376" height="2.333" rx="1.166" transform="translate(4.861 3.971)" fill="none" stroke="#3e3e3e" stroke-linecap="round" stroke-miterlimit="10" stroke-width="1"/>
      <path id="Tracciato_7268" data-name="Tracciato 7268" d="M3.878,4.177a1.565,1.565,0,0,1,.6,1.3A1.57,1.57,0,0,1,2.876,6.7a1.734,1.734,0,0,1-1.6-1.8A3.438,3.438,0,0,1,5.209,1.268h20.15a4.163,4.163,0,0,1,3.408,1.5,2.805,2.805,0,0,1,.525,2.142c-.126.6-.62,1.734-1.591,1.8-1.626-.048-2.112-1.656-1.01-2.524" transform="translate(-1.251 -1.251)" fill="none" stroke="#3e3e3e" stroke-linecap="round" stroke-miterlimit="10" stroke-width="1"/>
      <line id="Linea_475" data-name="Linea 475" y2="12.085" transform="translate(6.348 6.777)" fill="none" stroke="#3e3e3e" stroke-linecap="round" stroke-miterlimit="10" stroke-width="1"/>
      <line id="Linea_476" data-name="Linea 476" y2="12.085" transform="translate(21.299 6.777)" fill="none" stroke="#3e3e3e" stroke-linecap="round" stroke-miterlimit="10" stroke-width="1"/>
      <line id="Linea_477" data-name="Linea 477" y2="9.661" transform="translate(10.086 9.201)" fill="none" stroke="#3e3e3e" stroke-linecap="round" stroke-miterlimit="10" stroke-width="1"/>
      <line id="Linea_478" data-name="Linea 478" y2="9.661" transform="translate(13.823 9.201)" fill="none" stroke="#3e3e3e" stroke-linecap="round" stroke-miterlimit="10" stroke-width="1"/>
      <line id="Linea_479" data-name="Linea 479" y2="9.661" transform="translate(17.561 9.201)" fill="none" stroke="#3e3e3e" stroke-linecap="round" stroke-miterlimit="10" stroke-width="1"/>
    </g>
  </g>
</svg>
