<svg xmlns="http://www.w3.org/2000/svg" width="66.87" height="45.596" viewBox="0 0 66.87 45.596">
  <g id="icona-360" transform="translate(-443.411 -813.563)">
    <path id="Tracciato_7225" data-name="Tracciato 7225" d="M-8.936,26.039C8.147,32.76-2.028,44.931-19.364,44.931" transform="translate(509.901 810.528)" fill="none" stroke="#707070" stroke-linecap="round" stroke-width="1"/>
    <path id="Tracciato_7230" data-name="Tracciato 7230" d="M-9.036,26.394c-17.083,6.722-7.807,18.538,9.53,18.538" transform="translate(462.037 810.527)" fill="none" stroke="#707070" stroke-linecap="round" stroke-width="1"/>
    <g id="Rettangolo_166" data-name="Rettangolo 166" transform="translate(456.834 827.149)" fill="#fff" stroke="#707070" stroke-width="1">
      <rect width="39.247" height="19.908" rx="2" stroke="none"/>
      <rect x="0.5" y="0.5" width="38.247" height="18.908" rx="1.5" fill="none"/>
    </g>
    <g id="Raggruppa_841" data-name="Raggruppa 841" transform="translate(452.57 828.246)">
      <g id="Rettangolo_166-2" data-name="Rettangolo 166" transform="translate(0)" fill="#fff" stroke="#707070" stroke-width="1">
        <path d="M2,0H7.33a2,2,0,0,1,2,2V20.049a1,1,0,0,1-1,1H1a1,1,0,0,1-1-1V2A2,2,0,0,1,2,0Z" stroke="none"/>
        <path d="M2,.5H7.33A1.5,1.5,0,0,1,8.83,2V20.049a.5.5,0,0,1-.5.5H1a.5.5,0,0,1-.5-.5V2A1.5,1.5,0,0,1,2,.5Z" fill="none"/>
      </g>
    </g>
    <g id="Raggruppa_855" data-name="Raggruppa 855" transform="translate(492.034 828.246)">
      <g id="Rettangolo_166-3" data-name="Rettangolo 166" transform="translate(0)" fill="#fff" stroke="#707070" stroke-width="1">
        <path d="M2,0H7.774a2,2,0,0,1,2,2V20.049a1,1,0,0,1-1,1H1a1,1,0,0,1-1-1V2A2,2,0,0,1,2,0Z" stroke="none"/>
        <path d="M2,.5H7.774A1.5,1.5,0,0,1,9.274,2V20.049a.5.5,0,0,1-.5.5H1a.5.5,0,0,1-.5-.5V2A1.5,1.5,0,0,1,2,.5Z" fill="none"/>
      </g>
    </g>
    <g id="Poligono_1" data-name="Poligono 1" transform="translate(450.126 813.563)" fill="rgba(194,23,24,0.6)" stroke-linecap="round" stroke-linejoin="round">
      <path d="M 48.40505218505859 14.18257999420166 L 3.818723201751709 14.18257999420166 C 3.460633277893066 14.18257999420166 3.357973098754883 13.89682006835938 3.335033178329468 13.80924034118652 C 3.312103271484375 13.72165966033936 3.261523246765137 13.42226028442383 3.573663234710693 13.24674034118652 L 25.86681365966797 0.7114298939704895 C 25.94148254394531 0.6694398522377014 26.02622222900391 0.6472498774528503 26.11188316345215 0.6472498774528503 C 26.19754409790039 0.6472498774528503 26.28228378295898 0.6694398522377014 26.35694313049316 0.7114198803901672 L 48.65011215209961 13.24674987792969 C 48.96224212646484 13.42226028442383 48.91167449951172 13.72165966033936 48.88874435424805 13.80924034118652 C 48.86580276489258 13.89682006835938 48.76314163208008 14.18257999420166 48.40505218505859 14.18257999420166 Z" stroke="none"/>
      <path d="M 26.11188316345215 1.147239685058594 L 3.818733215332031 13.6825647354126 C 3.818733215332031 13.68256950378418 3.818733215332031 13.68257522583008 3.818721771240234 13.68257999420166 L 48.40502548217773 13.68257999420166 C 48.40502548217773 13.68257427215576 48.405029296875 13.68256759643555 48.40504455566406 13.68256950378418 L 26.11200332641602 1.147250175476074 C 26.11198234558105 1.147239685058594 26.11194229125977 1.147239685058594 26.11188316345215 1.147239685058594 M 26.11188316345215 0.147242546081543 C 26.28086090087891 0.147242546081543 26.44983863830566 0.1900253295898438 26.60201263427734 0.2755899429321289 L 48.89517211914062 12.81091976165771 C 49.79221343994141 13.31532955169678 49.43418121337891 14.68257999420166 48.40504455566406 14.68257999420166 L 3.818721771240234 14.68257999420166 C 2.789581298828125 14.68257999420166 2.431541442871094 13.31532955169678 3.328594207763672 12.81091976165771 L 25.62175369262695 0.2755899429321289 C 25.77392768859863 0.1900253295898438 25.94290542602539 0.147242546081543 26.11188316345215 0.147242546081543 Z" stroke="none" fill="#707070"/>
    </g>
    <g id="Poligono_3" data-name="Poligono 3" transform="translate(488.293 822.74)" fill="#fff" stroke-linecap="round" stroke-linejoin="round">
      <path d="M 14.51382446289062 6.841282844543457 L 2.715164422988892 6.841282844543457 C 2.391624212265015 6.841282844543457 2.27424430847168 6.590842723846436 2.24597430229187 6.514082908630371 C 2.217704296112061 6.437333106994629 2.144604206085205 6.17058277130127 2.390854358673096 5.960732936859131 L 8.290184020996094 0.9333128929138184 C 8.38056468963623 0.8562929034233093 8.495744705200195 0.8138728737831116 8.614494323730469 0.8138728737831116 C 8.733243942260742 0.8138728737831116 8.848423957824707 0.8562929034233093 8.938804626464844 0.9333128929138184 L 14.838134765625 5.960732936859131 C 15.08438396453857 6.17058277130127 15.01128387451172 6.437333106994629 14.98301410675049 6.514082908630371 C 14.95474433898926 6.590842723846436 14.83736419677734 6.841282844543457 14.51382446289062 6.841282844543457 Z" stroke="none"/>
      <path d="M 8.614494323730469 1.313862800598145 L 2.715164184570312 6.341282844543457 L 14.51382446289062 6.341282844543457 L 8.61506462097168 1.313922882080078 C 8.61501407623291 1.313902854919434 8.614794731140137 1.313872814178467 8.614494323730469 1.313872814178467 L 8.614494323730469 1.313862800598145 M 8.614494323730469 0.3138704299926758 C 8.845364570617676 0.3138704299926758 9.076233863830566 0.3934979438781738 9.263114929199219 0.5527529716491699 L 15.16244411468506 5.580173015594482 C 15.87014389038086 6.183272838592529 15.44364452362061 7.341282844543457 14.51382446289062 7.341282844543457 L 2.715164184570312 7.341282844543457 C 1.785344123840332 7.341282844543457 1.358844757080078 6.183272838592529 2.066544532775879 5.580173015594482 L 7.965874671936035 0.5527529716491699 C 8.152754783630371 0.3934979438781738 8.383624076843262 0.3138704299926758 8.614494323730469 0.3138704299926758 Z" stroke="none" fill="#707070"/>
    </g>
    <g id="Poligono_4" data-name="Poligono 4" transform="translate(449.294 822.74)" fill="#fff" stroke-linecap="round" stroke-linejoin="round">
      <path d="M 13.44549655914307 6.841289520263672 L 2.570656776428223 6.841289520263672 C 2.253326654434204 6.841289520263672 2.133766651153564 6.597329139709473 2.104676723480225 6.52255916595459 C 2.075586557388306 6.447789192199707 1.998866677284241 6.187159538269043 2.232786655426025 5.972719192504883 L 7.670206546783447 0.988049328327179 C 7.762656688690186 0.9032893180847168 7.882656574249268 0.8566192984580994 8.008076667785645 0.8566192984580994 C 8.133496284484863 0.8566192984580994 8.253497123718262 0.9032893180847168 8.345946311950684 0.988049328327179 L 13.78336620330811 5.972719192504883 C 14.01728630065918 6.187159538269043 13.94056701660156 6.447789192199707 13.91147708892822 6.52255916595459 C 13.88238620758057 6.597329139709473 13.76282691955566 6.841289520263672 13.44549655914307 6.841289520263672 Z" stroke="none"/>
      <path d="M 8.008075714111328 1.356609344482422 L 8.008075714111328 1.356619358062744 L 2.570658683776855 6.341286659240723 C 2.570658683776855 6.341288089752197 2.570658683776855 6.341288089752197 2.570655822753906 6.341289520263672 L 13.44549179077148 6.341289520263672 C 13.4454927444458 6.341288089752197 13.4454927444458 6.341288089752197 13.44549560546875 6.341289520263672 L 8.00877571105957 1.356669425964355 C 8.008706092834473 1.356649398803711 8.008445739746094 1.356609344482422 8.008075714111328 1.356609344482422 M 8.008075714111328 0.3566141128540039 C 8.250368118286133 0.3566141128540039 8.492660522460938 0.4442391395568848 8.683825492858887 0.6194891929626465 L 14.12124538421631 5.604159355163574 C 14.79349517822266 6.220439434051514 14.3574857711792 7.341289520263672 13.44549560546875 7.341289520263672 L 2.570655822753906 7.341289520263672 C 1.658665657043457 7.341289520263672 1.222655296325684 6.220439434051514 1.894906044006348 5.604159355163574 L 7.33232593536377 0.6194891929626465 C 7.523490905761719 0.4442391395568848 7.765783309936523 0.3566141128540039 8.008075714111328 0.3566141128540039 Z" stroke="none" fill="#707070"/>
    </g>
    <line id="Linea_431" data-name="Linea 431" y2="11.012" transform="translate(465.31 832.072)" fill="none" stroke="#707070" stroke-linecap="round" stroke-width="1"/>
    <line id="Linea_432" data-name="Linea 432" y2="11.012" transform="translate(469.208 832.072)" fill="none" stroke="#707070" stroke-linecap="round" stroke-width="1"/>
    <line id="Linea_433" data-name="Linea 433" y2="11.012" transform="translate(484.998 832.072)" fill="none" stroke="#707070" stroke-linecap="round" stroke-width="1"/>
    <line id="Linea_434" data-name="Linea 434" y2="11.012" transform="translate(488.895 832.072)" fill="none" stroke="#707070" stroke-linecap="round" stroke-width="1"/>
    <g id="Rettangolo_445" data-name="Rettangolo 445" transform="translate(472.352 830.804)" fill="rgba(194,23,24,0.6)" stroke="#707070" stroke-width="1">
      <path d="M2,0H6.423a2,2,0,0,1,2,2V12.847a0,0,0,0,1,0,0H0a0,0,0,0,1,0,0V2A2,2,0,0,1,2,0Z" stroke="none"/>
      <path d="M2,.5H6.423A1.5,1.5,0,0,1,7.923,2V12.347a0,0,0,0,1,0,0H.5a0,0,0,0,1,0,0V2A1.5,1.5,0,0,1,2,.5Z" fill="none"/>
    </g>
    <g id="Rettangolo_446" data-name="Rettangolo 446" transform="translate(454.708 833.752)" fill="#fff" stroke="#707070" stroke-width="1">
      <path d="M2,0H3.054a2,2,0,0,1,2,2V12.847a0,0,0,0,1,0,0H0a0,0,0,0,1,0,0V2A2,2,0,0,1,2,0Z" stroke="none"/>
      <path d="M2,.5H3.054A1.5,1.5,0,0,1,4.554,2V12.347a0,0,0,0,1,0,0H.5a0,0,0,0,1,0,0V2A1.5,1.5,0,0,1,2,.5Z" fill="none"/>
    </g>
    <g id="Rettangolo_447" data-name="Rettangolo 447" transform="translate(494.379 833.752)" fill="#fff" stroke="#707070" stroke-width="1">
      <path d="M2,0H3.054a2,2,0,0,1,2,2V12.847a0,0,0,0,1,0,0H0a0,0,0,0,1,0,0V2A2,2,0,0,1,2,0Z" stroke="none"/>
      <path d="M2,.5H3.054A1.5,1.5,0,0,1,4.554,2V12.347a0,0,0,0,1,0,0H.5a0,0,0,0,1,0,0V2A1.5,1.5,0,0,1,2,.5Z" fill="none"/>
    </g>
    <text id="_360_" data-name="360°" transform="translate(477.367 858.16)" fill="#707070" font-size="10" font-family="HelveticaNowDisplay-ExtraBold, Helvetica Now Display" font-weight="800"><tspan x="-11.44" y="0">360°</tspan></text>
    <line id="Linea_435" data-name="Linea 435" y1="2.192" x2="2.192" transform="translate(461.436 855.324)" fill="none" stroke="#707070" stroke-linecap="round" stroke-width="1"/>
    <line id="Linea_436" data-name="Linea 436" x2="2.192" y2="2.192" transform="translate(461.436 853.131)" fill="none" stroke="#707070" stroke-linecap="round" stroke-width="1"/>
  </g>
</svg>
