<svg xmlns="http://www.w3.org/2000/svg" width="60.398" height="39.272" viewBox="0 0 60.398 39.272">
  <g id="icona-scegli" transform="translate(-176.49 -818.418)">
    <g id="Raggruppa_850" data-name="Raggruppa 850" transform="translate(176.49 838.357)">
      <g id="Rettangolo_167" data-name="Rettangolo 167" transform="translate(0)" fill="#fff" stroke="#707070" stroke-width="1">
        <rect width="23.929" height="18.613" rx="2" stroke="none"/>
        <rect x="0.5" y="0.5" width="22.929" height="17.613" rx="1.5" fill="none"/>
      </g>
      <line id="Linea_52" data-name="Linea 52" x2="9.838" transform="translate(2.58 14.648)" fill="none" stroke="#707070" stroke-linecap="round" stroke-width="1"/>
      <line id="Linea_51" data-name="Linea 51" x2="14.199" transform="translate(2.58 16.113)" fill="none" stroke="#707070" stroke-linecap="round" stroke-width="0.5"/>
      <g id="Rettangolo_170" data-name="Rettangolo 170" transform="translate(2.035 2.307)" fill="rgba(194,23,24,0.6)" stroke="#707070" stroke-width="1">
        <rect width="19.86" height="10.538" rx="1" stroke="none"/>
        <rect x="0.5" y="0.5" width="18.86" height="9.538" rx="0.5" fill="none"/>
      </g>
    </g>
    <g id="Raggruppa_851" data-name="Raggruppa 851" transform="translate(201.566 818.418)">
      <g id="Rettangolo_167-2" data-name="Rettangolo 167" transform="translate(0)" fill="#fff" stroke="#707070" stroke-width="1">
        <rect width="23.929" height="18.613" rx="2" stroke="none"/>
        <rect x="0.5" y="0.5" width="22.929" height="17.613" rx="1.5" fill="none"/>
      </g>
      <line id="Linea_52-2" data-name="Linea 52" x2="9.838" transform="translate(2.58 14.648)" fill="none" stroke="#707070" stroke-linecap="round" stroke-width="1"/>
      <line id="Linea_51-2" data-name="Linea 51" x2="14.199" transform="translate(2.58 16.113)" fill="none" stroke="#707070" stroke-linecap="round" stroke-width="0.5"/>
      <g id="Rettangolo_170-2" data-name="Rettangolo 170" transform="translate(2.035 2.307)" fill="rgba(194,23,24,0.6)" stroke="#707070" stroke-width="1">
        <rect width="19.86" height="10.538" rx="1" stroke="none"/>
        <rect x="0.5" y="0.5" width="18.86" height="9.538" rx="0.5" fill="none"/>
      </g>
    </g>
    <g id="Raggruppa_852" data-name="Raggruppa 852" transform="translate(201.566 838.357)">
      <g id="Rettangolo_167-3" data-name="Rettangolo 167" transform="translate(0)" fill="#fff" stroke="#707070" stroke-width="1">
        <rect width="23.929" height="18.613" rx="2" stroke="none"/>
        <rect x="0.5" y="0.5" width="22.929" height="17.613" rx="1.5" fill="none"/>
      </g>
      <line id="Linea_52-3" data-name="Linea 52" x2="9.838" transform="translate(2.58 14.648)" fill="none" stroke="#707070" stroke-linecap="round" stroke-width="1"/>
      <line id="Linea_51-3" data-name="Linea 51" x2="14.199" transform="translate(2.58 16.113)" fill="none" stroke="#707070" stroke-linecap="round" stroke-width="0.5"/>
      <g id="Rettangolo_170-3" data-name="Rettangolo 170" transform="translate(2.035 2.307)" fill="rgba(194,23,24,0.6)" stroke="#707070" stroke-width="1">
        <rect width="19.86" height="10.538" rx="1" stroke="none"/>
        <rect x="0.5" y="0.5" width="18.86" height="9.538" rx="0.5" fill="none"/>
      </g>
    </g>
    <g id="Raggruppa_853" data-name="Raggruppa 853" transform="translate(176.49 818.418)">
      <g id="Rettangolo_167-4" data-name="Rettangolo 167" transform="translate(0)" fill="#fff" stroke="#707070" stroke-width="1">
        <rect width="23.929" height="18.613" rx="2" stroke="none"/>
        <rect x="0.5" y="0.5" width="22.929" height="17.613" rx="1.5" fill="none"/>
      </g>
      <line id="Linea_52-4" data-name="Linea 52" x2="9.838" transform="translate(2.58 14.648)" fill="none" stroke="#707070" stroke-linecap="round" stroke-width="1"/>
      <line id="Linea_51-4" data-name="Linea 51" x2="14.199" transform="translate(2.58 16.113)" fill="none" stroke="#707070" stroke-linecap="round" stroke-width="0.5"/>
      <g id="Rettangolo_170-4" data-name="Rettangolo 170" transform="translate(2.035 2.307)" fill="rgba(194,23,24,0.6)" stroke="#707070" stroke-width="1">
        <rect width="19.86" height="10.538" rx="1" stroke="none"/>
        <rect x="0.5" y="0.5" width="18.86" height="9.538" rx="0.5" fill="none"/>
      </g>
    </g>
    <ellipse id="Ellisse_86" data-name="Ellisse 86" cx="9.125" cy="9.125" rx="9.125" ry="9.125" transform="translate(211.572 832.141)" fill="#fff" opacity="0.74"/>
    <path id="Ellisse_84_-_Contorno" data-name="Ellisse 84 - Contorno" d="M10.73,2.385a8.346,8.346,0,1,0,8.346,8.346A8.355,8.355,0,0,0,10.73,2.385M10.73,0A10.73,10.73,0,1,1,0,10.73,10.73,10.73,0,0,1,10.73,0Z" transform="translate(210.053 830.856)" fill="#707070"/>
    <path id="Linea_36" data-name="Linea 36" d="M6.746,7.938A1.189,1.189,0,0,1,5.9,7.589L-.151,1.535A1.192,1.192,0,0,1,1.535-.151L7.589,5.9a1.192,1.192,0,0,1-.843,2.035Z" transform="translate(228.949 849.752)" fill="#707070"/>
  </g>
</svg>
