<svg xmlns="http://www.w3.org/2000/svg" width="28.189" height="23.357" viewBox="0 0 28.189 23.357">
  <g id="icona-archeo" transform="translate(0.505 0.503)">
    <g id="Livello_1" data-name="Livello 1" transform="translate(0 0)">
      <rect id="Rettangolo_493" data-name="Rettangolo 493" width="17.788" height="2.258" rx="1.129" transform="translate(4.705 18.497)" fill="none" stroke="#3e3e3e" stroke-linecap="round" stroke-miterlimit="10" stroke-width="1"/>
      <path id="Tracciato_7267" data-name="Tracciato 7267" d="M28.626,50.7H5.788c-.264,0-.478.113-.478.256v1.087c0,.143.214.256.478.256H28.626c.264,0,.478-.113.478-.256V50.956C29.1,50.826,28.89,50.7,28.626,50.7Z" transform="translate(-3.606 -29.945)" fill="none" stroke="#3e3e3e" stroke-linecap="round" stroke-miterlimit="10" stroke-width="1"/>
      <line id="Linea_474" data-name="Linea 474" x2="19.446" transform="translate(3.878 2.358)" fill="none" stroke="#3e3e3e" stroke-linecap="round" stroke-miterlimit="10" stroke-width="1"/>
      <rect id="Rettangolo_494" data-name="Rettangolo 494" width="17.788" height="2.258" rx="1.129" transform="translate(4.705 3.844)" fill="none" stroke="#3e3e3e" stroke-linecap="round" stroke-miterlimit="10" stroke-width="1"/>
      <path id="Tracciato_7268" data-name="Tracciato 7268" d="M3.794,4.084a1.515,1.515,0,0,1,.579,1.259A1.519,1.519,0,0,1,2.824,6.527,1.679,1.679,0,0,1,1.275,4.789,3.328,3.328,0,0,1,5.082,1.267h19.5a4.03,4.03,0,0,1,3.3,1.448,2.716,2.716,0,0,1,.508,2.073c-.122.583-.6,1.679-1.54,1.738-1.574-.046-2.044-1.6-.978-2.443" transform="translate(-1.251 -1.251)" fill="none" stroke="#3e3e3e" stroke-linecap="round" stroke-miterlimit="10" stroke-width="1"/>
      <line id="Linea_475" data-name="Linea 475" y2="11.698" transform="translate(6.145 6.56)" fill="none" stroke="#3e3e3e" stroke-linecap="round" stroke-miterlimit="10" stroke-width="1"/>
      <line id="Linea_476" data-name="Linea 476" y2="11.698" transform="translate(20.617 6.56)" fill="none" stroke="#3e3e3e" stroke-linecap="round" stroke-miterlimit="10" stroke-width="1"/>
      <line id="Linea_477" data-name="Linea 477" y2="9.352" transform="translate(9.763 8.906)" fill="none" stroke="#3e3e3e" stroke-linecap="round" stroke-miterlimit="10" stroke-width="1"/>
      <line id="Linea_478" data-name="Linea 478" y2="9.352" transform="translate(13.381 8.906)" fill="none" stroke="#3e3e3e" stroke-linecap="round" stroke-miterlimit="10" stroke-width="1"/>
      <line id="Linea_479" data-name="Linea 479" y2="9.352" transform="translate(16.999 8.906)" fill="none" stroke="#3e3e3e" stroke-linecap="round" stroke-miterlimit="10" stroke-width="1"/>
    </g>
  </g>
</svg>
