<svg xmlns="http://www.w3.org/2000/svg" width="32.157" height="24.404" viewBox="0 0 32.157 24.404">
  <g id="icona-panorami" transform="translate(0.507 0.5)">
    <g id="icona-panorami-2" data-name="icona-panorami" transform="translate(0 0)">
      <path id="Tracciato_7276" data-name="Tracciato 7276" d="M30.2,15.406l7-13.745a.764.764,0,0,1,1.367,0l11.2,23.261" transform="translate(-18.563 -1.239)" fill="none" stroke="#3e3e3e" stroke-miterlimit="10" stroke-width="1"/>
      <path id="Tracciato_7277" data-name="Tracciato 7277" d="M1.317,44.786C.71,39.475,4.6,34.96,9.148,34.679a8.823,8.823,0,0,1,8.684,6.489l-.2-.555c1.375-.209,2.629-.265,2.814.2s-.929,1.166-.716,1.729c.31.8,2.919.1,3.57,1.246a1.286,1.286,0,0,1,.117.832l3.94-.056a2.89,2.89,0,0,0-.716-2.263c-1.278-1.146-3.827,0-4.294-.9-.249-.474.4-.937.237-1.487-.173-.627-1.335-1.262-5.882-1.186" transform="translate(-1.254 -21.226)" fill="none" stroke="#3e3e3e" stroke-miterlimit="10" stroke-width="1"/>
      <path id="Tracciato_7278" data-name="Tracciato 7278" d="M40.2,15.286a2.683,2.683,0,0,0,2.042,1.134c.9-.088,1.206-.993,2.127-1.282.615-.189,1.608-.141,3.192,1.11" transform="translate(-24.543 -9.501)" fill="none" stroke="#3e3e3e" stroke-miterlimit="10" stroke-width="1"/>
      <circle id="Ellisse_94" data-name="Ellisse 94" cx="2.593" cy="2.593" r="2.593" transform="translate(4.618 0.881)" fill="none" stroke="#3e3e3e" stroke-miterlimit="10" stroke-width="1"/>
      <path id="Tracciato_7279" data-name="Tracciato 7279" d="M27.849,52.317a4.659,4.659,0,0,1,.2-2.927c.334-.8,1.077-1.865,1.652-1.745s.326,1.15,1.162,1.745c.756.539,1.439.052,2.187.49.466.273.961.9,1.073,2.5Z" transform="translate(-17.069 -28.983)" fill="none" stroke="#3e3e3e" stroke-miterlimit="10" stroke-width="1"/>
      <path id="Tracciato_7280" data-name="Tracciato 7280" d="M17.007,54.146a2.058,2.058,0,0,1,.169-1.7,1.769,1.769,0,0,1,1.25-.892c.86-.052,1.9,1,2.054,2.677Z" transform="translate(-10.608 -31.327)" fill="none" stroke="#3e3e3e" stroke-miterlimit="10" stroke-width="1"/>
    </g>
  </g>
</svg>
